<svg xmlns="http://www.w3.org/2000/svg" xmlns:xlink="http://www.w3.org/1999/xlink" width="140" height="90" viewBox="0 0 140 90"><defs><style>.a{fill:#f1f3f4;}.b{fill:#dadce0;}.c{fill:#80868b;}.d{fill:url(#a);}.e{fill:url(#b);}.f{fill:url(#c);}.g{fill:url(#f);}</style><linearGradient id="a" x1="0.035" y1="0.427" x2="0.976" y2="0.399" gradientUnits="objectBoundingBox"><stop offset="0" stop-color="#5ecfdb"/><stop offset="1" stop-color="#96d293"/></linearGradient><linearGradient id="b" x1="0.011" y1="0.398" x2="0.957" y2="0.403" xlink:href="#a"/><linearGradient id="c" x1="-0.06" y1="1.379" x2="1.068" y2="1.316" xlink:href="#a"/><linearGradient id="f" y1="0.5" x2="1" y2="0.5" gradientUnits="objectBoundingBox"><stop offset="0" stop-color="#f38b45"/><stop offset="1" stop-color="#f16357"/></linearGradient></defs><g transform="translate(-218 -308)"><rect class="a" width="140" height="90" rx="6" transform="translate(218 308)"/><rect class="b" width="136" height="2" transform="translate(220 326)"/><circle class="c" cx="4" cy="4" r="4" transform="translate(228 314)"/><circle class="c" cx="4" cy="4" r="4" transform="translate(239 314)"/><circle class="c" cx="4" cy="4" r="4" transform="translate(250 314)"/><g transform="translate(263.187 323.737)"><path class="d" d="M341.888,206.828a1.454,1.454,0,0,0-1.434,2.53c3.276,1.856,5.176,4.139,5.176,6.429,0,3.98-5.471,7.741-13.47,9.361a1.454,1.454,0,1,0,.577,2.851c9.54-1.932,15.8-6.726,15.8-12.212C348.537,212.4,346.113,209.222,341.888,206.828Z" transform="translate(-298.91 -172.163)"/><path class="e" d="M17.544,228.3v4.932a1.454,1.454,0,0,0,2.26,1.21l8.723-5.816a1.454,1.454,0,0,0,0-2.419L19.8,220.393a1.454,1.454,0,0,0-2.26,1.21v3.724c-8.5-1.456-14.636-5.324-14.636-9.54,0-2.29,1.9-4.573,5.176-6.429a1.454,1.454,0,0,0-1.434-2.53C2.424,209.222,0,212.4,0,215.787,0,221.71,7.06,226.649,17.544,228.3Z" transform="translate(0 -172.162)"/><path class="f" d="M159.258,21.644l-10.981-5.491a1.456,1.456,0,0,0-1.3,0l-10.981,5.491,11.632,5.815Z" transform="translate(-122.813)"/><path class="f" d="M282.631,113.913v-13.64L271,106.089v14.539l10.828-5.414A1.455,1.455,0,0,0,282.631,113.913Z" transform="translate(-244.733 -76.104)"/><path class="f" d="M121,113.918a1.454,1.454,0,0,0,.8,1.3l10.828,5.414V106.093L121,100.278Z" transform="translate(-109.272 -76.109)"/></g><rect class="g" width="4" height="4" rx="1" transform="translate(309 340)"/></g></svg>