<svg xmlns="http://www.w3.org/2000/svg" xmlns:xlink="http://www.w3.org/1999/xlink" width="140" height="90" viewBox="0 0 140 90"><defs><style>.a{fill:#f1f3f4;}.b{fill:#dadce0;}.c{fill:#80868b;}.d{fill:#5ecfdb;opacity:0.3;}.e{fill:url(#a);}.f{fill:url(#b);}.g{fill:none;}.h{fill:url(#d);}</style><linearGradient id="a" y1="0.5" x2="1" y2="0.5" gradientUnits="objectBoundingBox"><stop offset="0" stop-color="#5ecfdb"/><stop offset="1" stop-color="#96d293"/></linearGradient><linearGradient id="b" y1="0.5" x2="1" y2="0.5" gradientUnits="objectBoundingBox"><stop offset="0" stop-color="#f38b45"/><stop offset="1" stop-color="#f16357"/></linearGradient><linearGradient id="d" y1="0.542" y2="0.523" xlink:href="#b"/></defs><g transform="translate(-218 -308)"><rect class="a" width="140" height="90" rx="6" transform="translate(218 308)"/><rect class="b" width="136" height="2" transform="translate(220 326)"/><circle class="c" cx="4" cy="4" r="4" transform="translate(228 314)"/><circle class="c" cx="4" cy="4" r="4" transform="translate(239 314)"/><circle class="c" cx="4" cy="4" r="4" transform="translate(250 314)"/><rect class="d" width="128" height="60" rx="3" transform="translate(224 332)"/><rect class="e" width="40" height="40" rx="3" transform="translate(268 342)"/><rect class="f" width="4" height="4" rx="1" transform="translate(345 335)"/><g transform="translate(270 344)"><path class="g" d="M0,0H36V36H0Z"/><path class="f" d="M29,3h3v9H29V6H23V3ZM5,3h6V6H5v6H2V3ZM29,27V21h3v9H23V27ZM5,27h6v3H2V21H5Z" transform="translate(1 1.5)"/></g><g transform="translate(281 355)"><path class="g" d="M0,0H14V14H0Z"/><path class="h" d="M11,7.89l1.8,4.955-1.644.6-1.8-4.955L6.918,10.33l.869-8.7,6.257,6.1Z" transform="translate(-2.882 -0.68)"/></g></g></svg>