<svg xmlns="http://www.w3.org/2000/svg" xmlns:xlink="http://www.w3.org/1999/xlink" width="140" height="90" viewBox="0 0 140 90"><defs><style>.a{fill:#f1f3f4;}.b{fill:#dadce0;}.c{fill:#80868b;}.d{fill:#5ecfdb;opacity:0.3;}.e{fill:url(#a);}.f{fill:none;}.g{fill:url(#b);}</style><linearGradient id="a" y1="0.5" x2="1" y2="0.5" gradientUnits="objectBoundingBox"><stop offset="0" stop-color="#5ecfdb"/><stop offset="1" stop-color="#96d293"/></linearGradient><linearGradient id="b" y1="0.597" x2="1" y2="0.586" gradientUnits="objectBoundingBox"><stop offset="0" stop-color="#f38b45"/><stop offset="1" stop-color="#f16357"/></linearGradient></defs><g transform="translate(-218 -308)"><rect class="a" width="140" height="90" rx="6" transform="translate(218 308)"/><rect class="b" width="136" height="2" transform="translate(220 326)"/><circle class="c" cx="4" cy="4" r="4" transform="translate(228 314)"/><circle class="c" cx="4" cy="4" r="4" transform="translate(239 314)"/><circle class="c" cx="4" cy="4" r="4" transform="translate(250 314)"/><rect class="d" width="89" height="60" rx="3" transform="translate(224 332)"/><rect class="e" width="89" height="35" rx="3" transform="translate(224 345)"/><g transform="translate(260 363)"><path class="f" d="M0,0H8V8H0Z" transform="translate(5.174 5.174)"/><path class="g" d="M9.429,13.429,6,10h6.857Z" transform="translate(-0.354 -2.068)"/></g><g transform="translate(259 350)"><path class="f" d="M0,0H20V20H0Z"/><path class="g" d="M9.951,3.667a5.129,5.129,0,0,0-2.607.471A2.878,2.878,0,0,0,6.138,5.344,5.125,5.125,0,0,0,5.667,7.95v4.765a5.129,5.129,0,0,0,.471,2.607,2.876,2.876,0,0,0,1.207,1.207A5.127,5.127,0,0,0,9.951,17h1.432a5.129,5.129,0,0,0,2.607-.471A2.878,2.878,0,0,0,15.2,15.322a5.127,5.127,0,0,0,.471-2.607V7.95A5.129,5.129,0,0,0,15.2,5.343a2.877,2.877,0,0,0-1.207-1.207,5.136,5.136,0,0,0-2.606-.47H9.95ZM9.951,2h1.432a6.643,6.643,0,0,1,3.393.668,4.543,4.543,0,0,1,1.89,1.89,6.643,6.643,0,0,1,.667,3.393v4.765a6.643,6.643,0,0,1-.667,3.393A4.543,4.543,0,0,1,14.776,18a6.643,6.643,0,0,1-3.393.667H9.95A6.643,6.643,0,0,1,6.557,18a4.543,4.543,0,0,1-1.89-1.89A6.653,6.653,0,0,1,4,12.716V7.95a6.643,6.643,0,0,1,.668-3.393A4.543,4.543,0,0,1,6.558,2.668,6.637,6.637,0,0,1,9.951,2ZM9.833,5.333H11.5V9.5H9.833Z" transform="translate(-0.667 -0.333)"/></g></g></svg>