<svg xmlns="http://www.w3.org/2000/svg" xmlns:xlink="http://www.w3.org/1999/xlink" width="140" height="90" viewBox="0 0 140 90"><defs><style>.a{fill:#f1f3f4;}.b{fill:#dadce0;}.c{fill:#80868b;}.d{fill:url(#a);}.e{fill:url(#b);}.f{fill:#fff;}</style><linearGradient id="a" y1="0.5" x2="1" y2="0.5" gradientUnits="objectBoundingBox"><stop offset="0" stop-color="#5ecfdb"/><stop offset="1" stop-color="#96d293"/></linearGradient><linearGradient id="b" y1="0.5" x2="1" y2="0.5" gradientUnits="objectBoundingBox"><stop offset="0" stop-color="#f38b45"/><stop offset="1" stop-color="#f16357"/></linearGradient></defs><g transform="translate(-218 -308)"><rect class="a" width="140" height="90" rx="6" transform="translate(218 308)"/><rect class="b" width="136" height="2" transform="translate(220 326)"/><circle class="c" cx="4" cy="4" r="4" transform="translate(228 314)"/><circle class="c" cx="4" cy="4" r="4" transform="translate(239 314)"/><circle class="c" cx="4" cy="4" r="4" transform="translate(250 314)"/><rect class="d" width="47" height="48" rx="3" transform="translate(305 332)"/><rect class="e" width="39" height="14" rx="2" transform="translate(309 357)"/><path class="f" d="M3.208.156a2.49,2.49,0,0,0,2.72-2.51A2.257,2.257,0,0,0,3.613-4.717a1.762,1.762,0,0,0-1.567.771H2.017l.161-1.929H5.5V-7.046H1.021L.674-2.993H1.992a1.409,1.409,0,0,1,1.235-.649A1.255,1.255,0,0,1,4.521-2.314a1.246,1.246,0,0,1-1.3,1.3A1.223,1.223,0,0,1,1.924-2.017H.562A2.39,2.39,0,0,0,3.208.156Zm6.3,0c1.772,0,2.847-1.421,2.847-3.7S11.27-7.207,9.507-7.207s-2.852,1.4-2.852,3.672S7.734.156,9.507.156Zm0-1.182c-.84,0-1.353-.908-1.353-2.51s.522-2.49,1.353-2.49,1.348.9,1.348,2.49S10.347-1.025,9.507-1.025ZM16.377.669V.039c1.533-.132,2.4-.9,2.4-2.144,0-1.06-.625-1.709-1.875-1.982l-.522-.1V-6.011a.992.992,0,0,1,.908.918h1.357a2.187,2.187,0,0,0-2.266-2.046v-.674h-.688v.669c-1.465.117-2.324.889-2.324,2.085a1.988,1.988,0,0,0,1.807,1.968l.518.122v1.9a1.084,1.084,0,0,1-1.074-.947h-1.4c0,1.2.938,1.968,2.471,2.056V.669Zm1.016-2.617c0,.518-.376.85-1.016.889V-2.847C17.07-2.71,17.393-2.422,17.393-1.948ZM14.775-5.181a.876.876,0,0,1,.913-.835v1.685C15.093-4.458,14.775-4.751,14.775-5.181Z" transform="translate(319 351)"/><path class="f" d="M-17.352-1.605c.035,1.059.9,1.7,2.254,1.7,1.4,0,2.285-.691,2.285-1.785,0-.859-.492-1.344-1.621-1.586l-.684-.145c-.648-.148-.922-.344-.922-.691,0-.418.391-.7.973-.7s1.008.289,1.047.766h1.105c-.02-1.02-.844-1.7-2.156-1.7-1.258,0-2.156.688-2.156,1.727,0,.824.512,1.352,1.551,1.574l.734.16c.68.152.949.355.949.723,0,.414-.43.715-1.059.715s-1.109-.3-1.164-.77ZM-12.541,0H-11.4V-2.441a.907.907,0,0,1,.934-.973.817.817,0,0,1,.871.9V0h1.141V-2.75a1.47,1.47,0,0,0-1.551-1.613,1.416,1.416,0,0,0-1.391.832h-.023V-5.906h-1.121Zm6.4.074A2.01,2.01,0,0,0-4.019-2.152,2.018,2.018,0,0,0-6.14-4.375,2.022,2.022,0,0,0-8.261-2.152,2.012,2.012,0,0,0-6.14.074Zm0-.879c-.6,0-.965-.492-.965-1.348S-6.742-3.5-6.14-3.5s.961.5.961,1.348S-5.539-.8-6.14-.8Zm4.815-3.547a1.426,1.426,0,0,0-1.336.785h-.023V-4.3H-3.81V1.352h1.141V-.723h.023A1.4,1.4,0,0,0-1.31.051C-.232.051.44-.785.44-2.152S-.236-4.352-1.325-4.352ZM-1.7-.871c-.582,0-.969-.5-.969-1.277S-2.286-3.43-1.7-3.43s.977.5.977,1.277S-1.114-.871-1.7-.871ZM3.179,0V-3.691h.035L5.851,0h.977V-5.637H5.7v3.672H5.668L3.035-5.637H2.05V0ZM9.244.074a2.01,2.01,0,0,0,2.121-2.227A2.018,2.018,0,0,0,9.244-4.375,2.022,2.022,0,0,0,7.123-2.152,2.012,2.012,0,0,0,9.244.074Zm0-.879c-.6,0-.965-.492-.965-1.348S8.643-3.5,9.244-3.5s.961.5.961,1.348S9.846-.8,9.244-.8Zm8.288-3.5H16.407L15.739-1.09h-.023L14.934-4.3H13.84L13.063-1.09h-.023L12.375-4.3H11.227L12.375,0h1.2l.785-3.062h.023L15.176,0h1.211Z" transform="translate(328 367)"/></g></svg>