<svg xmlns="http://www.w3.org/2000/svg" xmlns:xlink="http://www.w3.org/1999/xlink" width="140" height="90" viewBox="0 0 140 90"><defs><style>.a{fill:#f1f3f4;}.b{fill:#dadce0;}.c{fill:#80868b;}.d{fill:#5ecfdb;opacity:0.3;}.e{fill:url(#a);}.f{fill:none;}.g{fill:url(#b);}</style><linearGradient id="a" y1="0.5" x2="1" y2="0.523" gradientUnits="objectBoundingBox"><stop offset="0" stop-color="#5ecfdb"/><stop offset="1" stop-color="#96d293"/></linearGradient><linearGradient id="b" y1="0.5" x2="1" y2="0.5" gradientUnits="objectBoundingBox"><stop offset="0" stop-color="#f38b45"/><stop offset="1" stop-color="#f16357"/></linearGradient></defs><g transform="translate(-218 -308)"><rect class="a" width="140" height="90" rx="6" transform="translate(218 308)"/><rect class="b" width="136" height="2" transform="translate(220 326)"/><circle class="c" cx="4" cy="4" r="4" transform="translate(228 314)"/><circle class="c" cx="4" cy="4" r="4" transform="translate(239 314)"/><circle class="c" cx="4" cy="4" r="4" transform="translate(250 314)"/><rect class="d" width="128" height="60" rx="3" transform="translate(224 332)"/><rect class="e" width="128" height="30" rx="3" transform="translate(224 332)"/><g transform="translate(278 337)"><path class="f" d="M0,0H20V20H0Z"/><path class="g" d="M17,3h1.667V8H17V4.667H13.667V3ZM3.667,3H7V4.667H3.667V8H2V3ZM17,16.333V13h1.667v5h-5V16.333Zm-13.333,0H7V18H2V13H3.667Z" transform="translate(-0.333 -0.5)"/></g></g></svg>