<svg xmlns="http://www.w3.org/2000/svg" xmlns:xlink="http://www.w3.org/1999/xlink" width="140" height="90" viewBox="0 0 140 90"><defs><style>.a{fill:#f1f3f4;}.b{fill:#dadce0;}.c{fill:#80868b;}.d{fill:url(#a);}.e{fill:none;}.f{fill:#fff;}.g{fill:url(#b);}.h{fill:#282828;}</style><linearGradient id="a" y1="0.5" x2="1" y2="0.5" gradientUnits="objectBoundingBox"><stop offset="0" stop-color="#5ecfdb"/><stop offset="1" stop-color="#96d293"/></linearGradient><linearGradient id="b" y1="0.5" x2="1" y2="0.5" gradientUnits="objectBoundingBox"><stop offset="0" stop-color="#f38b45"/><stop offset="1" stop-color="#f16357"/></linearGradient></defs><g transform="translate(-218 -308)"><rect class="a" width="140" height="90" rx="6" transform="translate(218 308)"/><rect class="b" width="136" height="2" transform="translate(220 326)"/><circle class="c" cx="4" cy="4" r="4" transform="translate(228 314)"/><circle class="c" cx="4" cy="4" r="4" transform="translate(239 314)"/><circle class="c" cx="4" cy="4" r="4" transform="translate(250 314)"/><g transform="translate(66 3)"><rect class="d" width="89" height="35" rx="3" transform="translate(158 354)"/><g transform="translate(196 364)"><path class="e" d="M0,0H14V14H0Z"/><path class="f" d="M7.408,8.376,9.583,4.75,14.25,13.5H2L6.083,5.917Zm.653,1.179,1.515,2.778h2.73L9.523,7.117,8.061,9.556ZM3.953,12.333H8.214L6.083,8.378Zm.089-6.417A1.458,1.458,0,1,1,5.5,4.458,1.458,1.458,0,0,1,4.042,5.917Z" transform="translate(-0.833 -1.25)"/></g><g transform="translate(0 2)"><rect class="g" width="83" height="6" rx="2" transform="translate(161 378)"/><g transform="translate(10 -21.006)"><rect class="f" width="20" height="2" rx="1" transform="translate(211 401.006)"/></g><g transform="translate(164 377)"><path class="e" d="M0,0H8V2H0Z" transform="translate(0 2.994)"/><path class="h" d="M3.609,10.5a.609.609,0,1,0,.609.609A.611.611,0,0,0,3.609,10.5Zm6.093,0a.609.609,0,1,0,.609.609A.611.611,0,0,0,9.7,10.5Zm-3.046,0a.609.609,0,1,0,.609.609A.611.611,0,0,0,6.656,10.5Z" transform="translate(-2.656 -7.109)"/></g></g></g></g></svg>