<svg xmlns="http://www.w3.org/2000/svg" xmlns:xlink="http://www.w3.org/1999/xlink" width="195" height="41" viewBox="0 0 195 41"><defs><style>.a{fill:none;opacity:0;}.b{fill:url(#a);}.c{fill:url(#b);}</style><linearGradient id="a" y1="0.5" x2="1" y2="0.534" gradientUnits="objectBoundingBox"><stop offset="0" stop-color="#5ecfdb"/><stop offset="1" stop-color="#96d293"/></linearGradient><linearGradient id="b" y1="0.5" x2="1" y2="0.5" gradientUnits="objectBoundingBox"><stop offset="0" stop-color="#f38b45"/><stop offset="1" stop-color="#f16357"/></linearGradient></defs><g transform="translate(-213 -32)"><rect class="a" width="195" height="41" transform="translate(213 32)"/><path class="b" d="M2.461,0h11.3C22.641,0,27.87-5.517,27.87-14.909v-.041c0-9.372-5.25-14.643-14.109-14.643H2.461ZM8.654-5.127V-24.486h4.368c5.435,0,8.531,3.384,8.531,9.557v.041c0,6.4-2.994,9.762-8.531,9.762ZM32.794-24.814a3.147,3.147,0,0,0,3.2-3.117,3.147,3.147,0,0,0-3.2-3.117,3.147,3.147,0,0,0-3.2,3.117A3.147,3.147,0,0,0,32.794-24.814ZM29.8,0h5.988V-21.984H29.8ZM48.381,7.629c6.6,0,10.726-3.343,10.726-8.244V-21.984H53.119v3.753H53a7.121,7.121,0,0,0-6.686-4.2c-5.558,0-9,4.163-9,11.177v.021c0,6.829,3.4,10.931,8.9,10.931A7.239,7.239,0,0,0,53-4.061h.123V-.7c0,2.461-1.641,4.061-4.737,4.061-2.5,0-4.1-.943-4.573-2.03l-.062-.144H37.922l.021.185C38.517,4.9,42.331,7.629,48.381,7.629ZM48.279-4.7c-2.994,0-4.881-2.44-4.881-6.4v-.021c0-3.937,1.907-6.357,4.881-6.357,2.912,0,4.86,2.44,4.86,6.357v.021C53.139-7.157,51.211-4.7,48.279-4.7ZM64.461-24.814a3.147,3.147,0,0,0,3.2-3.117,3.147,3.147,0,0,0-3.2-3.117,3.147,3.147,0,0,0-3.2,3.117A3.147,3.147,0,0,0,64.461-24.814ZM61.467,0h5.988V-21.984H61.467Zm6.81,0h6.3L78.7-7.629h.123L83,0h6.5L82.694-11.115l6.87-10.869H83.043l-3.9,7.424h-.123l-3.958-7.424H68.318l6.85,11.033Z" transform="translate(212 64)"/><path class="c" d="M10.356,0h3.691V-26.271h9.331v-3.322H1.025v3.322h9.331Zm15.67-24.937a2.227,2.227,0,0,0,2.235-2.235,2.215,2.215,0,0,0-2.235-2.235,2.227,2.227,0,0,0-2.235,2.235A2.241,2.241,0,0,0,26.026-24.937ZM24.242,0H27.81V-21.328H24.242Zm6.749,0h3.568V-13.371A4.911,4.911,0,0,1,39.44-18.58a4.07,4.07,0,0,1,4.368,4.286V0h3.568V-13.556A4.742,4.742,0,0,1,52.2-18.58c2.81,0,4.43,1.743,4.43,4.676V0h3.568V-14.725c0-4.245-2.728-7.014-6.952-7.014a7.139,7.139,0,0,0-6.686,4.1h-.082a5.978,5.978,0,0,0-5.988-4.1,6.19,6.19,0,0,0-5.845,3.527h-.082v-3.117H30.991ZM71.823.41c4.655,0,8.142-2.789,8.839-6.316l.041-.205H77.2l-.062.185C76.52-4.1,74.612-2.748,71.905-2.748c-3.794,0-6.214-2.563-6.3-6.952H80.97v-1.312c0-6.4-3.548-10.726-9.372-10.726S62-17.206,62-10.6v.021C62-3.876,65.691.41,71.823.41Zm-.246-18.99c3.117,0,5.414,1.948,5.763,6.091H65.671C66.061-16.468,68.481-18.58,71.577-18.58ZM90.446.41c4.758,0,8.285-2.625,8.285-6.357v-.021c0-3.035-1.559-4.737-5.865-5.783l-3.384-.82c-2.358-.574-3.322-1.579-3.322-3.035v-.021c0-1.887,1.6-3.138,4.184-3.138,2.646,0,4.225,1.374,4.512,3.445l.021.144h3.4l-.021-.267c-.267-3.568-3.24-6.3-7.916-6.3-4.614,0-7.834,2.6-7.834,6.275v.021c0,3.076,1.948,4.942,5.968,5.906l3.384.82c2.42.595,3.22,1.456,3.22,2.994V-5.7c0,1.928-1.723,3.138-4.614,3.138-2.912,0-4.491-1.251-4.922-3.384L85.5-6.152H81.935l.021.185C82.386-2.153,85.422.41,90.446.41Z" transform="translate(308 64)"/></g></svg>