<svg xmlns="http://www.w3.org/2000/svg" xmlns:xlink="http://www.w3.org/1999/xlink" width="140" height="90" viewBox="0 0 140 90"><defs><style>.a{fill:#f1f3f4;}.b{fill:#dadce0;}.c{fill:#80868b;}.d{fill:url(#a);}.e{fill:url(#b);}.f{fill:none;}.g{fill:#fff;}</style><linearGradient id="a" y1="0.5" x2="1" y2="0.5" gradientUnits="objectBoundingBox"><stop offset="0" stop-color="#5ecfdb"/><stop offset="1" stop-color="#96d293"/></linearGradient><linearGradient id="b" y1="0.5" x2="1" y2="0.5" gradientUnits="objectBoundingBox"><stop offset="0" stop-color="#f38b45"/><stop offset="1" stop-color="#f16357"/></linearGradient></defs><g transform="translate(-218 -308)"><rect class="a" width="140" height="90" rx="6" transform="translate(218 308)"/><rect class="b" width="136" height="2" transform="translate(220 326)"/><circle class="c" cx="4" cy="4" r="4" transform="translate(228 314)"/><circle class="c" cx="4" cy="4" r="4" transform="translate(239 314)"/><circle class="c" cx="4" cy="4" r="4" transform="translate(250 314)"/><g transform="translate(66 -22)"><rect class="d" width="89" height="35" rx="3" transform="translate(158 354)"/><g transform="translate(13 -23)"><rect class="e" width="20" height="2" rx="1" transform="translate(211 403)"/></g><rect class="e" width="83" height="1" rx="0.5" transform="translate(161 384)"/><g transform="translate(196 364)"><path class="f" d="M0,0H14V14H0Z"/><path class="g" d="M14.636,9.09,8.453,13.212A.292.292,0,0,1,8,12.969V4.726a.292.292,0,0,1,.453-.243L14.636,8.6a.292.292,0,0,1,0,.485Z" transform="translate(-3.333 -1.848)"/></g><circle class="g" cx="1.5" cy="1.5" r="1.5" transform="translate(170 383)"/></g></g></svg>