<svg xmlns="http://www.w3.org/2000/svg" xmlns:xlink="http://www.w3.org/1999/xlink" width="140" height="90" viewBox="0 0 140 90"><defs><style>.a{fill:#f1f3f4;}.b{fill:#dadce0;}.c{fill:#80868b;}.d{fill:url(#a);}.e{fill:url(#b);}</style><linearGradient id="a" y1="0.537" x2="1" y2="0.53" gradientUnits="objectBoundingBox"><stop offset="0" stop-color="#5ecfdb"/><stop offset="1" stop-color="#96d293"/></linearGradient><linearGradient id="b" x1="0.5" x2="0.5" y2="1" gradientUnits="objectBoundingBox"><stop offset="0" stop-color="#f38b45"/><stop offset="1" stop-color="#f16357"/></linearGradient></defs><g transform="translate(-218 -308)"><rect class="a" width="140" height="90" rx="6" transform="translate(218 308)"/><rect class="b" width="136" height="2" transform="translate(220 326)"/><circle class="c" cx="4" cy="4" r="4" transform="translate(228 314)"/><circle class="c" cx="4" cy="4" r="4" transform="translate(239 314)"/><circle class="c" cx="4" cy="4" r="4" transform="translate(250 314)"/><rect class="d" width="34" height="44" rx="3" transform="translate(318 332)"/><g transform="translate(325.495 358.015) rotate(-90)"><path class="e" d="M7.183,362.773H.847a.793.793,0,0,0-.792.792.822.822,0,0,0,.122.429.583.583,0,0,0,.047.068l3.214,4.01a.815.815,0,0,0,.577.244.854.854,0,0,0,.623-.294l3.168-3.96a.659.659,0,0,0,.048-.068.827.827,0,0,0,.122-.43A.793.793,0,0,0,7.183,362.773Zm0,0" transform="translate(0 -344.306)"/><path class="e" d="M.847,5.548H7.182a.793.793,0,0,0,.792-.792.822.822,0,0,0-.122-.429A.571.571,0,0,0,7.8,4.258L4.591.248A.8.8,0,0,0,3.392.3L.224,4.258a.65.65,0,0,0-.047.068.822.822,0,0,0-.122.429.793.793,0,0,0,.792.792Zm0,0" transform="translate(0 -5)"/></g></g></svg>